<?xml version="1.0" encoding="UTF-8"?>
<svg version="1.1" xmlns="http://www.w3.org/2000/svg" width="442" height="490">
<path d="M0 0 C145.86 0 291.72 0 442 0 C442 161.7 442 323.4 442 490 C296.14 490 150.28 490 0 490 C0 328.3 0 166.6 0 0 Z " fill="#101625" transform="translate(0,0)"/>
<path d="M0 0 C66.01793716 -0.20165675 66.01793716 -0.20165675 93.61328125 -0.24414062 C99.92919988 -0.25392938 106.24511788 -0.26403162 112.56103516 -0.2746582 C113.35258794 -0.27597695 114.14414073 -0.27729569 114.95967996 -0.2786544 C127.72404652 -0.30037679 140.48829998 -0.33978245 153.25259957 -0.38576398 C166.36079431 -0.43258908 179.46893 -0.46030816 192.57720494 -0.47044247 C200.6600407 -0.47728913 208.74255688 -0.49888131 216.82529423 -0.53958233 C223.03236472 -0.56923843 229.23919365 -0.5722589 235.4463253 -0.56553841 C237.98592021 -0.56691067 240.52552754 -0.57681251 243.06505013 -0.59602737 C270.78491117 -0.79542596 270.78491117 -0.79542596 278.78637314 6.66575146 C279.18687 7.10605348 279.58736687 7.5463555 280 8 C278.94185058 8.00054477 277.88370115 8.00108953 276.7934866 8.00165081 C251.00146439 8.01607039 225.20961047 8.05918702 199.41768551 8.13209057 C186.94469704 8.16668799 174.47181848 8.19208921 161.9987793 8.19555664 C151.12248967 8.19860382 140.24639607 8.2191957 129.3701821 8.26052457 C123.61560945 8.28178765 117.86131502 8.29448957 112.1067028 8.28615379 C106.68028552 8.27857133 101.25443001 8.2946063 95.82811546 8.32806015 C93.84614975 8.33624305 91.86412763 8.3361035 89.88216782 8.32659721 C69.05766076 8.23667529 51.98439017 13.31537863 36.72265625 28.21875 C24.91346169 40.28208792 16.62774521 55.84861241 16.63867188 72.97070312 C16.65478516 73.99099609 16.67089844 75.01128906 16.6875 76.0625 C16.68427734 77.08666016 16.68105469 78.11082031 16.67773438 79.16601562 C16.80501095 97.27400098 23.73464993 113.66414964 36.25 126.75 C49.24721998 139.23089206 65.09446202 146.01281255 83 147 C83 148.65 83 150.3 83 152 C153.29 152 223.58 152 296 152 C296 222.29 296 292.58 296 365 C222.21155625 365.0806627 222.21155625 365.0806627 191.4296875 365.09765625 C184.38378897 365.10157207 177.33789053 365.10561305 170.29199219 365.10986328 C169.40888886 365.11039078 168.52578553 365.11091828 167.6159215 365.11146176 C153.35404625 365.12016324 139.09218711 365.13593246 124.83032142 365.15430559 C110.19663286 365.17300067 95.56295275 365.1841159 80.92925274 365.18817699 C71.89759657 365.19092286 62.86598591 365.19959929 53.83434375 365.21583293 C47.64319738 365.22639497 41.45207458 365.22960239 35.26091985 365.22700275 C31.68757513 365.22572025 28.11431 365.22770303 24.54097939 365.23841095 C20.66757933 365.24993336 16.79428326 365.24598037 12.92086792 365.24050903 C11.79051522 365.24633472 10.66016252 365.2521604 9.49555671 365.25816262 C4.2736603 365.2381596 -0.12501319 365.12941127 -5 363 C-5 362.67 -5 362.34 -5 362 C-3.99208908 361.99668985 -2.98417816 361.99337971 -1.94572449 361.98996925 C22.58367818 361.90896018 47.11301843 361.81664002 71.64233398 361.71247292 C83.50454419 361.66236003 95.36674752 361.6159169 107.22900391 361.578125 C117.56864007 361.54517469 127.90822275 361.50532657 138.24779987 361.45720994 C143.72205178 361.43197527 149.19626835 361.41018496 154.67056274 361.39665604 C159.82512267 361.38380827 164.97956122 361.36172443 170.13405418 361.33261681 C172.02382277 361.32356228 173.91361089 361.31785577 175.80340004 361.31578636 C178.38876436 361.3124488 180.97378765 361.29693112 183.55908203 361.2784729 C184.30229611 361.28040763 185.0455102 361.28234237 185.81124592 361.28433573 C203.27060636 361.09870394 219.66487645 352.05273746 231.71313477 339.8984375 C246.20630253 324.43143934 249.60820857 305.82047553 249.34375 285.30859375 C248.90834085 273.0862962 244.25552856 259.09066837 235.33203125 250.40234375 C231.66673542 246.10692488 232.46312302 240.97552795 232.6875 235.625 C232.72133789 234.09166016 232.72133789 234.09166016 232.75585938 232.52734375 C232.81451918 230.01670419 232.89654072 227.50912621 233 225 C231.99735107 225.01047363 230.99470215 225.02094727 229.96166992 225.03173828 C226.19136214 225.06832576 222.42106957 225.09103934 218.65063477 225.10986328 C217.02821196 225.11983357 215.40580671 225.13341469 213.78344727 225.15087891 C211.43240998 225.17552746 209.08161304 225.18657282 206.73046875 225.1953125 C206.02166061 225.20563507 205.31285248 225.21595764 204.58256531 225.22659302 C200.65021667 225.22744176 197.08393939 224.84555251 193.2416687 223.99879456 C185.7457999 222.60563847 178.26220709 222.7467893 170.67163086 222.79223633 C169.05078733 222.79440185 167.42994224 222.79558471 165.80909729 222.79586792 C162.33939972 222.79791138 158.86977684 222.80556165 155.4000988 222.8173008 C149.9062256 222.83456226 144.41248266 222.83118258 138.91859436 222.82365417 C123.30332294 222.80453287 107.68822372 222.79781851 92.07299805 222.84545898 C83.43286922 222.87165029 74.79311396 222.87289512 66.15298182 222.84631175 C61.58956304 222.83335431 57.02695544 222.83325332 52.46360588 222.8641758 C48.17281789 222.89319964 43.88327214 222.88958475 39.59248924 222.86156845 C38.02442406 222.85709252 36.45627037 222.86443088 34.88833237 222.88489723 C26.29691622 222.98994783 19.88910521 222.45288497 12.94149113 216.92844677 C10.37847877 214.3826546 8.33202808 211.67820362 6.44921875 208.6015625 C4.78278839 206.44045124 4.78278839 206.44045124 0 206 C0 138.02 0 70.04 0 0 Z " fill="#F07B1E" transform="translate(73,66)"/>
<path d="M0 0 C66.01793716 -0.20165675 66.01793716 -0.20165675 93.61328125 -0.24414062 C99.92919988 -0.25392938 106.24511788 -0.26403162 112.56103516 -0.2746582 C113.35258794 -0.27597695 114.14414073 -0.27729569 114.95967996 -0.2786544 C127.72404652 -0.30037679 140.48829998 -0.33978245 153.25259957 -0.38576398 C166.36079431 -0.43258908 179.46893 -0.46030816 192.57720494 -0.47044247 C200.6600407 -0.47728913 208.74255688 -0.49888131 216.82529423 -0.53958233 C223.03236472 -0.56923843 229.23919365 -0.5722589 235.4463253 -0.56553841 C237.98592021 -0.56691067 240.52552754 -0.57681251 243.06505013 -0.59602737 C270.78491117 -0.79542596 270.78491117 -0.79542596 278.78637314 6.66575146 C279.18687 7.10605348 279.58736687 7.5463555 280 8 C278.94185058 8.00054477 277.88370115 8.00108953 276.7934866 8.00165081 C251.00146439 8.01607039 225.20961047 8.05918702 199.41768551 8.13209057 C186.94469704 8.16668799 174.47181848 8.19208921 161.9987793 8.19555664 C151.12248967 8.19860382 140.24639607 8.2191957 129.3701821 8.26052457 C123.61560945 8.28178765 117.86131502 8.29448957 112.1067028 8.28615379 C106.68028552 8.27857133 101.25443001 8.2946063 95.82811546 8.32806015 C93.84614975 8.33624305 91.86412763 8.3361035 89.88216782 8.32659721 C69.05766076 8.23667529 51.98439017 13.31537863 36.72265625 28.21875 C24.91346169 40.28208792 16.62774521 55.84861241 16.63867188 72.97070312 C16.65478516 73.99099609 16.67089844 75.01128906 16.6875 76.0625 C16.68427734 77.08666016 16.68105469 78.11082031 16.67773438 79.16601562 C16.80501095 97.27400098 23.73464993 113.66414964 36.25 126.75 C49.24721998 139.23089206 65.09446202 146.01281255 83 147 C83 148.65 83 150.3 83 152 C81.02 152.33 79.04 152.66 77 153 C76.83564453 153.8353125 76.83564453 153.8353125 76.66796875 154.6875 C73.97851904 167.6318433 69.13261201 175.57073441 58.29296875 183.5234375 C50.1168731 188.7884531 40.46981443 189.23439661 31 188 C23.90440729 186.20205524 17.61370524 183.91130984 13 178 C12.53980469 177.47921875 12.07960938 176.9584375 11.60546875 176.421875 C8 172.32971763 8 172.32971763 8 170 C5.27573689 172.35277269 4.1858237 174.62496331 3 178 C2.67 178 2.34 178 2 178 C1.67 187.24 1.34 196.48 1 206 C0.67 206 0.34 206 0 206 C0 138.02 0 70.04 0 0 Z " fill="#ED7E25" transform="translate(73,66)"/>
<path d="M0 0 C19.8 0 39.6 0 60 0 C60 53.13 60 106.26 60 161 C57.32734376 158.32734376 56.14662928 156.56239658 54.4375 153.3125 C49.50407727 144.98886806 42.19239478 139.60741178 33.02734375 136.609375 C27.38060505 135.47274115 21.72727865 135.69900433 16 136 C15.76925781 134.91203125 15.53851563 133.8240625 15.30078125 132.703125 C12.28104789 118.90718094 8.3100797 104.3100797 -2 94 C-2.22705078 91.75341797 -2.22705078 91.75341797 -2.1953125 88.9921875 C-2.18886719 88.00605469 -2.18242187 87.01992188 -2.17578125 86.00390625 C-2.15902344 84.97136719 -2.14226562 83.93882812 -2.125 82.875 C-2.11597656 81.83472656 -2.10695313 80.79445313 -2.09765625 79.72265625 C-2.07403747 77.14820908 -2.04110149 74.57421788 -2 72 C-1.27554687 71.68546875 -0.55109375 71.3709375 0.1953125 71.046875 C5.48016821 68.70744554 10.27186614 66.3096937 15 63 C16.485 62.505 16.485 62.505 18 62 C19.00916033 60.23408113 19.00916033 60.23408113 20 58 C20.639375 57.13375 21.27875 56.2675 21.9375 55.375 C27.18509818 46.78802116 28.65559782 36.92170839 26.30859375 27.109375 C22.84117613 16.72163017 17.81261665 9.14543932 8 4 C5.35230165 2.84080868 2.75220795 1.9007226 0 1 C0 0.67 0 0.34 0 0 Z " fill="#F17D21" transform="translate(308,219)"/>
<path d="M0 0 C70.29 0 140.58 0 213 0 C213 70.29 213 140.58 213 213 C139.21155625 213.0806627 139.21155625 213.0806627 108.4296875 213.09765625 C101.38378897 213.10157207 94.33789053 213.10561305 87.29199219 213.10986328 C86.40888886 213.11039078 85.52578553 213.11091828 84.6159215 213.11146176 C70.35404625 213.12016324 56.09218711 213.13593246 41.83032142 213.15430559 C27.19663286 213.17300067 12.56295275 213.1841159 -2.07074726 213.18817699 C-11.10240343 213.19092286 -20.13401409 213.19959929 -29.16565625 213.21583293 C-35.35680262 213.22639497 -41.54792542 213.22960239 -47.73908015 213.22700275 C-51.31242487 213.22572025 -54.88569 213.22770303 -58.45902061 213.23841095 C-62.33242067 213.24993336 -66.20571674 213.24598037 -70.07913208 213.24050903 C-71.77466113 213.24924756 -71.77466113 213.24924756 -73.50444329 213.25816262 C-78.7263397 213.2381596 -83.12501319 213.12941127 -88 211 C-88 210.67 -88 210.34 -88 210 C-86.99208908 209.99668985 -85.98417816 209.99337971 -84.94572449 209.98996925 C-60.41632182 209.90896018 -35.88698157 209.81664002 -11.35766602 209.71247292 C0.50454419 209.66236003 12.36674752 209.6159169 24.22900391 209.578125 C34.56864007 209.54517469 44.90822275 209.50532657 55.24779987 209.45720994 C60.72205178 209.43197527 66.19626835 209.41018496 71.67056274 209.39665604 C76.82512267 209.38380827 81.97956122 209.36172443 87.13405418 209.33261681 C89.02382277 209.32356228 90.91361089 209.31785577 92.80340004 209.31578636 C95.38876436 209.3124488 97.97378765 209.29693112 100.55908203 209.2784729 C101.30229611 209.28040763 102.0455102 209.28234237 102.81124592 209.28433573 C120.27060636 209.09870394 136.66487645 200.05273746 148.71313477 187.8984375 C160.65763539 175.15135749 165.77420236 159.2866274 166.5625 142.125 C166.60568359 141.24585938 166.64886719 140.36671875 166.69335938 139.4609375 C166.79869339 137.30744203 166.89977649 135.15373936 167 133 C167.66 133.99 168.32 134.98 169 136 C171.75829454 136.21270328 171.75829454 136.21270328 174.9375 135.9375 C185.40338511 135.74155281 192.83955549 139.03245181 200.76953125 145.77734375 C205.26806852 150.26012432 208.17947725 155.35895449 211 161 C211.33 108.2 211.66 55.4 212 1 C142.04 1 72.08 1 0 1 C0 0.67 0 0.34 0 0 Z " fill="#DF6D13" transform="translate(156,218)"/>
<path d="M0 0 C23.52254171 -0.11696245 47.04503963 -0.20505145 70.56781387 -0.25906086 C81.49062082 -0.2848084 92.41324676 -0.31989294 103.3359375 -0.37719727 C112.85960635 -0.42713787 122.38314406 -0.45931607 131.90694022 -0.47044247 C136.94665248 -0.47694318 141.98598967 -0.49214958 147.02558136 -0.52865028 C151.77640792 -0.56277829 156.5267076 -0.57301923 161.27764511 -0.56553841 C163.01419572 -0.56690548 164.75076532 -0.57673738 166.48720932 -0.59602737 C176.4779183 -0.70149875 185.1571224 -0.37631674 194 5 C194.33 5.66 194.66 6.32 195 7 C130.65 7 66.3 7 0 7 C0 4.69 0 2.38 0 0 Z " fill="#F6882F" transform="translate(156,66)"/>
<path d="M0 0 C4.41376719 2.48801526 8.22994353 5.4304684 10.6875 9.9375 C11.1825 12.9075 11.1825 12.9075 11.6875 15.9375 C-2.8325 15.9375 -17.3525 15.9375 -32.3125 15.9375 C-30.92680601 9.00903006 -28.11013205 4.94062689 -22.3125 0.9375 C-15.35659958 -3.69976695 -7.43859117 -3.39953714 0 0 Z " fill="#292A2C" transform="translate(216.3125,474.0625)"/>
<path d="M0 0 C1.98 0.495 1.98 0.495 4 1 C3.67 2.32 3.34 3.64 3 5 C1.68 4.67 0.36 4.34 -1 4 C-0.67 2.68 -0.34 1.36 0 0 Z " fill="#171D2A" transform="translate(117,456)"/>
<path d="M0 0 C1.98 0.495 1.98 0.495 4 1 C3.67 2.32 3.34 3.64 3 5 C1.68 4.67 0.36 4.34 -1 4 C-0.67 2.68 -0.34 1.36 0 0 Z " fill="#171E2B" transform="translate(42,456)"/>
<path d="M0 0 C1.98 0.495 1.98 0.495 4 1 C3.67 2.32 3.34 3.64 3 5 C1.68 4.67 0.36 4.34 -1 4 C-0.67 2.68 -0.34 1.36 0 0 Z " fill="#19202F" transform="translate(42,231)"/>
<path d="M0 0 C1.98 0.495 1.98 0.495 4 1 C3.67 2.32 3.34 3.64 3 5 C1.68 4.67 0.36 4.34 -1 4 C-0.67 2.68 -0.34 1.36 0 0 Z " fill="#171D2A" transform="translate(417,156)"/>
<path d="M0 0 C1.98 0.495 1.98 0.495 4 1 C3.67 2.32 3.34 3.64 3 5 C1.68 4.67 0.36 4.34 -1 4 C-0.67 2.68 -0.34 1.36 0 0 Z " fill="#1A2130" transform="translate(42,156)"/>
<path d="M0 0 C1.98 0.495 1.98 0.495 4 1 C3.67 2.32 3.34 3.64 3 5 C1.68 4.67 0.36 4.34 -1 4 C-0.67 2.68 -0.34 1.36 0 0 Z " fill="#171E2B" transform="translate(417,81)"/>
<path d="M0 0 C1.98 0.495 1.98 0.495 4 1 C3.67 2.32 3.34 3.64 3 5 C1.68 4.67 0.36 4.34 -1 4 C-0.67 2.68 -0.34 1.36 0 0 Z " fill="#1A2231" transform="translate(42,81)"/>
<path d="M0 0 C1.98 0.495 1.98 0.495 4 1 C3.67 2.32 3.34 3.64 3 5 C1.68 4.67 0.36 4.34 -1 4 C-0.67 2.68 -0.34 1.36 0 0 Z " fill="#19202F" transform="translate(267,6)"/>
<path d="M0 0 C1.98 0.495 1.98 0.495 4 1 C3.67 2.32 3.34 3.64 3 5 C1.68 4.67 0.36 4.34 -1 4 C-0.67 2.68 -0.34 1.36 0 0 Z " fill="#1A2130" transform="translate(192,6)"/>
<path d="M0 0 C1.98 0.495 1.98 0.495 4 1 C3.67 2.32 3.34 3.64 3 5 C1.68 4.67 0.36 4.34 -1 4 C-0.67 2.68 -0.34 1.36 0 0 Z " fill="#1A2231" transform="translate(117,6)"/>
</svg>
